<?xml version="1.0" encoding="UTF-8" standalone="no"?>
<!-- Created with Inkscape (http://www.inkscape.org/) -->

<svg xmlns:inkscape="http://www.inkscape.org/namespaces/inkscape" xmlns:sodipodi="http://sodipodi.sourceforge.net/DTD/sodipodi-0.dtd" xmlns="http://www.w3.org/2000/svg" xmlns:svg="http://www.w3.org/2000/svg" version="1.1" id="svg1" width="219.63635" height="219.92728" viewBox="0 0 219.63635 219.92728" sodipodi:docname="VIMN NEGATIVE V.svg" inkscape:version="1.4 (86a8ad7, 2024-10-11)" style="&#10;">
  <defs id="defs1"/>
  <sodipodi:namedview id="namedview1" pagecolor="#505050" bordercolor="#eeeeee" borderopacity="1" inkscape:showpageshadow="0" inkscape:pageopacity="0" inkscape:pagecheckerboard="0" inkscape:deskcolor="#505050" inkscape:zoom="1.4142136" inkscape:cx="22.627417" inkscape:cy="133.28963" inkscape:window-width="1600" inkscape:window-height="847" inkscape:window-x="-8" inkscape:window-y="-8" inkscape:window-maximized="1" inkscape:current-layer="g1"/>
  <g inkscape:groupmode="layer" inkscape:label="Image" id="g1">
    <path style="fill:#f60e15;fill-opacity:1;stroke-width:0.707107" d="m 134.20544,142.11567 -9.69078,-26.51874 17.87364,-48.606072 17.87364,-48.606081 19.91696,-0.187776 19.91695,-0.187776 -1.60856,4.430417 c -12.03474,33.14701 -53.97336,146.187398 -54.23751,146.190538 -0.19445,0.002 -4.71441,-11.92921 -10.04434,-26.51451 z" id="path4"/>
    <path style="fill:#ffffff;fill-opacity:1;stroke-width:0.707107" d="M 88.788101,199.58089 C 88.165811,197.92803 72.908902,156.48273 54.883853,107.48023 L 22.111036,18.384777 40.506353,18.196053 c 10.117425,-0.103798 18.514069,-0.06997 18.659209,0.07517 0.14514,0.14514 15.182688,40.800317 33.416769,90.344837 18.234089,49.54452 33.492409,90.95599 33.907379,92.02549 l 0.75451,1.94454 H 108.58187 89.919531 Z" id="path5"/>
  </g>
</svg>
